<mxfile host="65bd71144e">
    <diagram id="PtXLaBM00-lh8xyZmS4A" name="Page-1">
        <mxGraphModel dx="1024" dy="782" grid="1" gridSize="10" guides="1" tooltips="1" connect="1" arrows="1" fold="1" page="1" pageScale="1" pageWidth="850" pageHeight="1100" math="0" shadow="0">
            <root>
                <mxCell id="0"/>
                <mxCell id="1" parent="0"/>
                <mxCell id="13" value="" style="rounded=0;whiteSpace=wrap;html=1;" vertex="1" parent="1">
                    <mxGeometry x="325" y="40" width="140" height="360" as="geometry"/>
                </mxCell>
                <mxCell id="8" value="Doctor&lt;div&gt;React&lt;/div&gt;" style="rounded=0;whiteSpace=wrap;html=1;" vertex="1" parent="1">
                    <mxGeometry x="335" y="50" width="120" height="60" as="geometry"/>
                </mxCell>
                <mxCell id="9" value="Customer&lt;div&gt;Flutter&lt;/div&gt;" style="rounded=0;whiteSpace=wrap;html=1;" vertex="1" parent="1">
                    <mxGeometry x="335" y="330" width="120" height="60" as="geometry"/>
                </mxCell>
                <mxCell id="10" value="Delivery&lt;div&gt;React&lt;/div&gt;" style="rounded=0;whiteSpace=wrap;html=1;" vertex="1" parent="1">
                    <mxGeometry x="335" y="190" width="120" height="60" as="geometry"/>
                </mxCell>
                <mxCell id="11" value="Shop keeper&lt;div&gt;React&lt;/div&gt;" style="rounded=0;whiteSpace=wrap;html=1;" vertex="1" parent="1">
                    <mxGeometry x="335" y="260" width="120" height="60" as="geometry"/>
                </mxCell>
                <mxCell id="12" value="Lab Technicians&lt;div&gt;React&lt;/div&gt;" style="rounded=0;whiteSpace=wrap;html=1;" vertex="1" parent="1">
                    <mxGeometry x="335" y="120" width="120" height="60" as="geometry"/>
                </mxCell>
                <mxCell id="14" value="Python&lt;div&gt;Django&lt;/div&gt;" style="rounded=0;whiteSpace=wrap;html=1;" vertex="1" parent="1">
                    <mxGeometry x="195" y="40" width="120" height="360" as="geometry"/>
                </mxCell>
                <mxCell id="16" value="PostgreSQL and MongoDB&lt;div&gt;SQL and NoSQL&lt;/div&gt;" style="rounded=0;whiteSpace=wrap;html=1;" vertex="1" parent="1">
                    <mxGeometry x="55" y="40" width="130" height="360" as="geometry"/>
                </mxCell>
                <mxCell id="18" value="" style="rounded=0;whiteSpace=wrap;html=1;" vertex="1" parent="1">
                    <mxGeometry x="325" y="690" width="140" height="360" as="geometry"/>
                </mxCell>
                <mxCell id="19" value="Doctor&lt;div&gt;.NET&lt;/div&gt;" style="rounded=0;whiteSpace=wrap;html=1;" vertex="1" parent="1">
                    <mxGeometry x="335" y="700" width="120" height="60" as="geometry"/>
                </mxCell>
                <mxCell id="20" value="Customer&lt;div&gt;Kotlin and Swift&lt;/div&gt;" style="rounded=0;whiteSpace=wrap;html=1;" vertex="1" parent="1">
                    <mxGeometry x="335" y="980" width="120" height="60" as="geometry"/>
                </mxCell>
                <mxCell id="21" value="Delivery&lt;div&gt;Spring Boot&lt;/div&gt;" style="rounded=0;whiteSpace=wrap;html=1;" vertex="1" parent="1">
                    <mxGeometry x="335" y="840" width="120" height="60" as="geometry"/>
                </mxCell>
                <mxCell id="22" value="Shop keeper&lt;div&gt;Spring Boot&lt;/div&gt;" style="rounded=0;whiteSpace=wrap;html=1;" vertex="1" parent="1">
                    <mxGeometry x="335" y="910" width="120" height="60" as="geometry"/>
                </mxCell>
                <mxCell id="23" value="Lab Technicians&lt;div&gt;Spring Boot&lt;/div&gt;" style="rounded=0;whiteSpace=wrap;html=1;" vertex="1" parent="1">
                    <mxGeometry x="335" y="770" width="120" height="60" as="geometry"/>
                </mxCell>
                <mxCell id="24" value="Python and Rust&lt;div&gt;Django and Warp&lt;/div&gt;" style="rounded=0;whiteSpace=wrap;html=1;" vertex="1" parent="1">
                    <mxGeometry x="195" y="690" width="120" height="360" as="geometry"/>
                </mxCell>
                <mxCell id="25" value="PostgreSQL and MongoDB&lt;div&gt;SQL and NoSQL&lt;/div&gt;" style="rounded=0;whiteSpace=wrap;html=1;" vertex="1" parent="1">
                    <mxGeometry x="55" y="690" width="130" height="360" as="geometry"/>
                </mxCell>
                <mxCell id="27" value="DataBase" style="text;html=1;align=center;verticalAlign=middle;whiteSpace=wrap;rounded=0;fontSize=20;" vertex="1" parent="1">
                    <mxGeometry x="70" y="10" width="60" height="30" as="geometry"/>
                </mxCell>
                <mxCell id="28" value="Frontend" style="text;html=1;align=center;verticalAlign=middle;whiteSpace=wrap;rounded=0;fontSize=20;" vertex="1" parent="1">
                    <mxGeometry x="340" y="10" width="60" height="30" as="geometry"/>
                </mxCell>
                <mxCell id="29" value="Backend" style="text;html=1;align=center;verticalAlign=middle;whiteSpace=wrap;rounded=0;fontSize=20;" vertex="1" parent="1">
                    <mxGeometry x="210" y="10" width="60" height="30" as="geometry"/>
                </mxCell>
                <mxCell id="30" value="DataBase&amp;nbsp;" style="text;html=1;align=center;verticalAlign=middle;whiteSpace=wrap;rounded=0;fontSize=20;" vertex="1" parent="1">
                    <mxGeometry x="70" y="660" width="60" height="30" as="geometry"/>
                </mxCell>
                <mxCell id="31" value="Frontend" style="text;html=1;align=center;verticalAlign=middle;whiteSpace=wrap;rounded=0;fontSize=20;" vertex="1" parent="1">
                    <mxGeometry x="335" y="660" width="60" height="30" as="geometry"/>
                </mxCell>
                <mxCell id="32" value="Backend" style="text;html=1;align=center;verticalAlign=middle;whiteSpace=wrap;rounded=0;fontSize=20;" vertex="1" parent="1">
                    <mxGeometry x="200" y="660" width="60" height="30" as="geometry"/>
                </mxCell>
                <mxCell id="34" value="&lt;h1 style=&quot;margin-top: 0px;&quot;&gt;Prototype&lt;/h1&gt;&lt;div&gt;this model of tech stack is choosen for speed development and rapid prototyping&lt;/div&gt;" style="text;html=1;whiteSpace=wrap;overflow=hidden;rounded=0;" vertex="1" parent="1">
                    <mxGeometry x="540" y="140" width="180" height="120" as="geometry"/>
                </mxCell>
                <mxCell id="35" value="&lt;h1 style=&quot;margin-top: 0px;&quot;&gt;&lt;span style=&quot;background-color: transparent;&quot;&gt;&lt;font style=&quot;color: light-dark(rgb(192, 192, 192), rgb(255, 255, 255));&quot;&gt;Actual Application&lt;/font&gt;&lt;/span&gt;&lt;/h1&gt;&lt;h1 style=&quot;margin-top: 0px;&quot;&gt;&lt;span style=&quot;background-color: transparent; font-size: 12px; font-weight: normal; color: rgb(192, 192, 192);&quot;&gt;&lt;font style=&quot;color: light-dark(rgb(192, 192, 192), rgb(255, 255, 255));&quot;&gt;this model of tech stack is choosen because it gives more fexilblity and scalablity in our project , also a solid preformance and no runtime error&lt;/font&gt;&lt;/span&gt;&lt;/h1&gt;" style="text;html=1;whiteSpace=wrap;overflow=hidden;rounded=0;" vertex="1" parent="1">
                    <mxGeometry x="520" y="760" width="240" height="170" as="geometry"/>
                </mxCell>
            </root>
        </mxGraphModel>
    </diagram>
</mxfile>